<svg width="96" height="11" viewBox="0 0 96 11" fill="none" xmlns="http://www.w3.org/2000/svg">
<path fill-rule="evenodd" clip-rule="evenodd" d="M65.3204 4.21849C65.3204 3.69872 65.8829 3.41993 66.5026 3.41993C67.5561 3.41993 67.4393 4.25393 68.1925 4.25393C68.5358 4.25393 68.7431 4.06019 68.7431 3.72707C68.7431 3.15295 67.9733 2.77021 66.7743 2.73241C65.6255 2.69697 65.0296 2.89779 64.6173 3.05609C64.1549 3.23564 63.9523 3.49553 63.9523 3.9019V9.5509C63.9523 9.84859 64.0976 9.84859 64.6387 9.84859C65.1798 9.84859 65.3228 9.84859 65.3228 9.5509V4.21849H65.3204ZM30.6879 5.2226C30.6903 3.07735 28.8049 2.7395 27.4392 2.7395C26.3356 2.7395 25.3465 3.01592 24.8793 3.21911C24.4193 3.41993 24.3811 3.67273 24.3811 4.08855V9.55563C24.3835 9.85332 24.5313 9.85332 25.0676 9.85332C25.6039 9.85332 25.7517 9.85332 25.7517 9.55563V4.50909C25.7493 4.06256 25.909 3.44828 27.4702 3.44828C28.9456 3.44828 29.3174 4.31299 29.3174 5.2226V9.55563C29.3174 9.85332 29.4676 9.85332 30.0015 9.85332C30.5354 9.85332 30.6879 9.85332 30.6879 9.55563V5.2226ZM61.2708 9.54618C61.2708 9.84387 61.4186 9.84387 61.9525 9.84387C62.4864 9.84387 62.6389 9.84387 62.6389 9.54618L62.6437 3.11042C62.6485 2.6379 61.993 2.75603 61.6569 2.97339C61.2803 3.21674 61.2708 3.33724 61.2708 3.80739V9.54854V9.54618ZM54.0249 5.7471C54.2275 5.23441 55.5265 1.86533 55.5957 1.67396C55.6147 1.61962 55.6719 1.61962 55.6934 1.67396C55.7863 1.91022 57.0997 5.22024 57.2927 5.73292C57.3356 5.84397 57.3523 5.93611 57.2021 5.93611H54.1346C53.9463 5.93611 53.9915 5.8227 54.0249 5.74237V5.7471ZM57.8052 6.98983C58.2723 8.08608 58.9135 9.61469 58.9135 9.61469C58.9945 9.80843 58.9207 9.85804 59.7311 9.85804C60.5891 9.85804 60.6416 9.82969 60.4723 9.45167C60.427 9.35008 57.0234 1.24396 56.8327 0.802154C56.6444 0.357984 56.561 0.32727 55.8531 0.32727C55.1523 0.32727 55.0594 0.346171 54.8663 0.802154C54.6685 1.26759 51.2529 9.40914 51.21 9.51074C51.0646 9.85804 51.1933 9.85804 51.7749 9.85804C52.3183 9.85804 52.3827 9.8415 52.4852 9.61233L53.5387 6.99928C53.6006 6.84099 53.6221 6.7772 53.808 6.7772C54.5302 6.7772 56.5848 6.7772 57.5311 6.77483C57.7122 6.77483 57.7313 6.82681 57.8028 6.99219L57.8052 6.98983ZM62.7486 0.811605C62.6723 0.457213 62.2743 0.242216 61.8166 0.339083C61.359 0.433587 61.0849 0.790342 61.1612 1.14237C61.2374 1.49676 61.6355 1.71176 62.0931 1.61489C62.5507 1.52039 62.8249 1.16363 62.7486 0.811605ZM69.1888 9.55326C69.1888 9.85095 69.3366 9.85095 69.8705 9.85095C70.4044 9.85095 70.557 9.85095 70.557 9.55326L70.5617 0.32727C70.5665 -0.145252 69.9087 -0.0271211 69.575 0.190239C69.2008 0.433588 69.1865 0.55408 69.1865 1.02188V9.55326H69.1888ZM73.565 0.813968C73.4887 0.459577 73.0907 0.244579 72.633 0.341446C72.1754 0.43595 71.9013 0.792705 71.9776 1.1471C72.0538 1.50149 72.4519 1.71649 72.9095 1.61962C73.3671 1.52511 73.6412 1.16836 73.565 0.813968ZM72.0848 9.54854C72.0848 9.84623 72.2326 9.84623 72.7665 9.84623C73.3004 9.84623 73.4506 9.84623 73.4506 9.54854L73.4553 3.11042C73.4601 2.6379 72.8046 2.75603 72.4686 2.97339C72.0943 3.21674 72.08 3.33724 72.08 3.80739V9.54854H72.0848ZM81.2518 5.22732C81.2566 3.08207 79.3712 2.74422 78.0031 2.74422C76.8995 2.74422 75.908 3.02065 75.4432 3.22383C74.9832 3.42465 74.945 3.67745 74.945 4.09563V9.56271C74.9474 9.8604 75.0976 9.8604 75.6315 9.8604C76.1654 9.8604 76.3156 9.8604 76.3156 9.56271V4.51618C76.3156 4.06964 76.4729 3.45537 78.0341 3.45537C79.5095 3.45537 79.8789 4.32244 79.8789 5.22969V9.56271C79.8813 9.8604 80.0291 9.8604 80.563 9.8604C81.0969 9.8604 81.2494 9.8604 81.2494 9.56271V5.22969L81.2518 5.22732ZM95.6792 7.95378C95.6244 5.57699 91.1505 6.01407 91.1505 4.35788C91.1505 3.71053 91.8227 3.41048 92.5497 3.41048C93.5984 3.41048 93.944 3.75778 94.1633 4.26338C94.2658 4.49964 94.4732 4.71464 94.8712 4.71464C95.1739 4.71464 95.4266 4.52563 95.4266 4.17596C95.4266 3.65146 94.6901 2.72532 92.676 2.71114C91.0075 2.69933 89.8801 3.33015 89.8778 4.63667C89.8778 7.08197 94.3564 6.55984 94.3469 8.25619C94.3445 8.95552 93.6866 9.28156 92.7284 9.29101C91.775 9.30046 91.265 8.91772 90.9885 8.25383C90.855 7.98449 90.6762 7.74114 90.2615 7.74823C89.8873 7.75532 89.6656 7.99158 89.6656 8.35542C89.6656 8.85393 90.5404 10.0116 92.6665 10.0116C94.4088 10.0116 95.7078 9.317 95.6768 7.95378H95.6792ZM9.55567 9.54854C9.55567 9.84623 9.70344 9.84623 10.2374 9.84623C10.7713 9.84623 10.9238 9.84623 10.9238 9.54854L10.9286 3.11042C10.9333 2.6379 10.2779 2.75603 9.94179 2.97339C9.56758 3.21674 9.55567 3.33724 9.55567 3.80739V9.54854ZM34.8948 10.0116C36.0365 10.0187 36.6157 9.81788 37.2998 9.50601C37.8146 9.26503 37.8146 8.99569 37.8146 8.68382V4.80442C37.8146 3.32542 36.5752 2.71114 35.1546 2.71587C32.8355 2.72059 31.913 3.70816 31.8773 4.34607C31.8582 4.68629 32.0632 4.93436 32.4636 4.94381C32.8521 4.95326 33.0857 4.6981 33.1763 4.48783C33.4623 3.8263 33.9509 3.41757 34.9639 3.41757C35.7577 3.41757 36.4656 3.77668 36.4632 4.71228V5.12337C36.4632 5.24859 36.4632 5.27694 36.3512 5.28875C34.2632 5.61952 31.5507 6.2716 31.5507 8.17114C31.5507 9.35244 32.9809 10.0069 34.8972 10.0092L34.8948 10.0116ZM36.4608 8.36487C36.4608 9.0831 35.5193 9.27211 34.8233 9.27211C33.5934 9.27211 32.9832 8.74998 32.9832 8.06482C32.9832 6.81264 34.6136 6.36138 36.3154 6.00699C36.406 5.98808 36.4608 5.97863 36.4608 6.10622V8.36487ZM11.0358 0.813968C10.9596 0.459577 10.5615 0.244579 10.1039 0.341446C9.64624 0.43595 9.37214 0.792705 9.44841 1.1471C9.52468 1.50149 9.92273 1.71649 10.3804 1.61962C10.838 1.52511 11.1121 1.16836 11.0358 0.813968ZM47.9732 9.56035C47.9732 9.85804 48.1209 9.85568 48.6572 9.85568C49.1935 9.85568 49.3413 9.85568 49.3413 9.56035V4.95799C49.3413 3.12933 47.6085 2.74895 46.5836 2.74895C45.3847 2.74895 44.703 3.08916 44.2358 3.59949C43.7377 3.06317 43.0727 2.74895 41.9071 2.74895C41.1039 2.74895 40.3221 2.94032 39.6189 3.24746C39.1136 3.46954 39.1136 3.76487 39.1136 4.05311V9.55799C39.1136 9.85568 39.2638 9.85568 39.7977 9.85568C40.3316 9.85568 40.4818 9.85568 40.4818 9.55799V4.42876C40.4818 3.66328 41.1015 3.45537 41.9143 3.453C42.9249 3.453 43.5446 3.92316 43.5446 5.10447V9.55563C43.5446 9.85332 43.6924 9.85332 44.2287 9.85332C44.765 9.85332 44.9103 9.85332 44.9103 9.55563V5.01705C44.9103 4.1169 45.3847 3.44828 46.4739 3.44828C47.5632 3.44828 47.9827 4.13107 47.9827 5.03831L47.9755 9.55563L47.9732 9.56035ZM13.5528 5.21315C13.6744 4.36733 14.3251 3.42938 15.6146 3.41993C16.6943 3.41048 17.6406 4.06019 17.6906 5.01705C17.7049 5.29112 17.631 5.32655 17.3021 5.32655H13.6601C13.56 5.32655 13.5457 5.28166 13.5552 5.21551L13.5528 5.21315ZM19.0516 7.7624C19.0516 7.63955 18.9563 7.51906 18.7846 7.51906C18.6273 7.51906 18.5463 7.5734 18.4533 7.73642C18.091 8.34597 17.202 9.05948 16.0198 9.07129C14.4204 9.08547 13.498 7.94669 13.5385 6.18891C13.5385 6.12984 13.5624 6.07786 13.6553 6.0755C13.7459 6.07314 16.158 6.07078 18.5868 6.0755C19.0516 6.0755 19.0611 5.77072 19.0611 5.51792C19.0611 4.06019 17.6906 2.71587 15.729 2.71587C13.7673 2.71587 12.1251 3.81685 12.1251 6.35193C12.1251 9.05003 14.1582 10.0069 15.8934 10.0069C17.9885 10.0069 19.0564 8.40031 19.0564 7.7624H19.0516ZM83.5805 5.21315C83.7021 4.36733 84.3551 3.42938 85.6423 3.41993C86.722 3.41048 87.6682 4.06019 87.7183 5.01705C87.7326 5.29112 87.6587 5.32655 87.3298 5.32655H83.6878C83.5877 5.32655 83.5733 5.28166 83.5829 5.21551L83.5805 5.21315ZM89.0769 7.7624C89.0769 7.63955 88.9816 7.51906 88.8099 7.51906C88.6526 7.51906 88.574 7.5734 88.4786 7.73642C88.1163 8.34597 87.2273 9.05948 86.0427 9.07129C84.4433 9.08547 83.5209 7.94669 83.5638 6.18891C83.5638 6.12984 83.59 6.07786 83.6806 6.0755C83.7736 6.07314 86.1833 6.07078 88.6121 6.0755C89.0769 6.0755 89.084 5.77072 89.084 5.51792C89.084 4.06019 87.7135 2.71587 85.7519 2.71587C83.7903 2.71587 82.148 3.81685 82.148 6.35193C82.148 9.05003 84.1811 10.0069 85.9163 10.0069C88.0115 10.0069 89.0793 8.40031 89.0793 7.7624H89.0769ZM3.65646 9.38079C3.84476 9.82496 3.88767 9.85804 4.60034 9.85804C5.31301 9.85804 5.30109 9.82969 5.50131 9.37607C5.70152 8.92245 8.3067 2.42763 8.99792 0.728914C9.15285 0.350896 9.08611 0.320182 8.47117 0.320182C7.93249 0.320182 7.88482 0.350896 7.78233 0.580069C7.78233 0.580069 4.86252 7.98213 4.80055 8.15224C4.78387 8.20185 4.7219 8.20421 4.69568 8.14515C4.60272 7.93488 1.63763 0.558806 1.63763 0.558806C1.56612 0.369797 1.54706 0.301281 0.746194 0.301281C-0.126172 0.301281 -0.0689685 0.383973 0.105028 0.809243C0.147931 0.910835 3.46817 8.93426 3.65646 9.37843V9.38079ZM20.3744 2.834C20.0551 2.83873 19.6189 2.834 19.6189 2.834C19.402 2.834 19.402 2.95213 19.402 3.19312C19.402 3.4341 19.402 3.54278 19.6189 3.54278H20.3768C20.5318 3.54278 20.5389 3.55932 20.5365 3.71998C20.5318 4.05783 20.5365 8.14987 20.5365 8.14987C20.5365 9.76354 21.4065 9.95491 22.267 9.96908C23.1179 9.9809 23.6756 9.73282 23.6661 9.43277C23.6613 9.2603 23.5445 9.18233 23.3467 9.2036C23.2084 9.22014 23.1107 9.26266 22.9224 9.26266C22.4719 9.26266 21.9047 9.14217 21.9047 8.16169V3.73415C21.9047 3.56405 21.9047 3.54278 22.0763 3.54278H23.3085C23.5254 3.54278 23.5326 3.42229 23.5326 3.19312C23.5326 2.96394 23.5254 2.83164 23.3085 2.83164H22.0691C21.9023 2.83164 21.9047 2.8151 21.9047 2.67334V1.1849C21.9047 0.946274 21.7211 0.86122 21.5733 0.873033C21.4661 0.882484 21.3374 0.950999 21.0347 1.1471C20.639 1.40462 20.5341 1.56764 20.5341 2.0378V2.66153C20.5341 2.83164 20.527 2.82927 20.3744 2.83164V2.834Z" fill="white"/>
</svg>
