<svg width="46" height="28" viewBox="0 0 46 28" fill="none" xmlns="http://www.w3.org/2000/svg">
<path d="M22.7386 24.5451C22.3457 24.7682 19.5031 27.1527 13.8577 27.1527C9.09946 27.1527 4.01458 24.7376 2.42115 24.7857C1.86058 24.7639 1.41035 24.8776 1.05724 25.0307C0.39073 25.3064 -0.258121 24.9039 0.103823 24.2257C1.35739 21.8806 3.4805 20.4367 5.49326 19.833C6.9631 19.3954 8.30053 19.2467 8.99794 20.0123C10.5296 21.6924 13.2927 23.7707 15.9764 24.0419C16.1927 24.0638 17.1682 24.1469 17.1814 23.8713C17.1902 23.705 16.8592 23.5957 16.5237 23.5694C13.7827 23.3725 8.83462 20.463 6.12004 14.8277C5.10042 12.7144 4.29266 10.6625 2.51384 9.76991C2.121 9.58177 2.10776 8.85986 2.93758 8.66735C3.51581 8.53172 7.16173 8.1817 11.3373 10.3606C13.253 11.3625 13.5222 12.255 13.5311 13.0382C13.5134 18.9448 16.5281 21.2899 17.6934 21.9812C18.3423 22.3662 18.9514 22.5281 19.0132 22.3268C19.0662 22.1562 18.894 22.0425 18.7439 21.9549C15.1289 19.7805 14.1755 16.4334 14.149 13.0295C14.1225 9.66053 15.3805 6.74662 16.2721 4.35336C16.4045 4.01647 16.8239 2.59014 16.4663 1.27319C16.1971 0.288766 16.4178 0.00437534 16.9386 0.00437534C17.508 0.00437534 18.2716 0.923175 18.5277 1.23819C18.7351 1.47446 19.3972 2.2795 20.4036 4.24836C22.3943 8.15107 22.4119 12.2288 22.4119 12.7276C22.4119 15.5277 21.6836 15.8515 20.4963 16.4334C19.3089 17.0153 18.7484 17.7635 18.7439 18.6298C18.7439 19.5223 19.3707 20.4499 20.4963 20.778C21.3702 21.0318 21.9264 20.9355 21.8778 20.7124C21.8425 20.533 21.4541 20.4892 21.3438 20.4586C20.1564 20.1392 19.3663 19.5354 19.3663 18.6298C19.3663 17.501 20.7744 16.6697 22.7474 16.6697C24.7204 16.6697 26.1329 17.4966 26.1329 18.6298C26.1329 19.5354 25.3428 20.1392 24.1554 20.4586C24.0451 20.4892 23.6567 20.533 23.6214 20.7124C23.5772 20.9399 24.129 21.0318 25.0029 20.778C26.1285 20.4542 26.7553 19.5223 26.7509 18.6298C26.7509 17.7635 26.1859 17.0109 24.9985 16.429C23.8112 15.8471 23.0829 15.5233 23.0829 12.7232C23.0829 12.2244 23.1005 8.1467 25.0868 4.24398C26.0932 2.27512 26.7597 1.47008 26.9627 1.23382C27.2187 0.9188 27.9823 0 28.5562 0C29.0814 0 29.2977 0.284391 29.0285 1.26882C28.6709 2.58577 29.0902 4.01209 29.2227 4.34899C30.1143 6.73787 31.3767 9.65178 31.3502 13.0251C31.3237 16.4334 30.3659 19.7805 26.7553 21.9549C26.6052 22.0425 26.4331 22.1606 26.486 22.3268C26.5478 22.5281 27.1569 22.3662 27.8058 21.9812C28.9711 21.2855 31.9858 18.9448 31.9681 13.0382C31.977 12.255 32.2418 11.3581 34.1575 10.3606C38.3331 8.1817 41.9834 8.53172 42.5572 8.66735C43.3826 8.86423 43.3694 9.58177 42.981 9.76991C41.2021 10.6625 40.3944 12.7144 39.3748 14.8277C36.6558 20.463 31.7121 23.3725 28.9711 23.5694C28.6312 23.5913 28.3002 23.7007 28.3134 23.8713C28.3266 24.1426 29.3021 24.0638 29.5184 24.0419C32.2021 23.7707 34.9652 21.6924 36.4969 20.008C37.1898 19.2423 38.5317 19.3911 40.0015 19.8286C42.0099 20.428 44.1374 21.8718 45.3866 24.2213C45.7485 24.8995 45.0996 25.302 44.4331 25.0264C44.08 24.8732 43.6298 24.7595 43.0692 24.7814C41.4758 24.7332 36.3953 27.1527 31.6327 27.1484C25.9828 27.1484 23.1491 24.7595 22.7518 24.5407L22.7386 24.5451Z" fill="#DBA410"/>
</svg>
